<?xml version="1.0" encoding="UTF-8"?>
<svg xmlns="http://www.w3.org/2000/svg" width="39" height="39" viewBox="0 0 39 39" fill="none">
  <path d="M34.0719 7.06728C31.2804 3.5762 27.2972 1.08177 22.7422 0.205078C24.0875 1.7051 25.9093 4.04033 27.4216 7.06728H34.0719Z" fill="white"></path>
  <path d="M30.1991 17.1751C30.2182 17.4856 30.2215 17.7973 30.2294 18.1078H38.2351C38.0793 14.7177 37.0355 11.5573 35.3337 8.84875H28.2305C29.2451 11.2804 30.0096 14.0753 30.1991 17.1751Z" fill="white"></path>
  <path d="M27.9727 29.0879H35.3741C37.0535 26.3928 38.0815 23.2537 38.2362 19.8882H30.2126C30.0556 22.9745 29.3034 26.0452 27.9727 29.0879Z" fill="white"></path>
  <path d="M22.457 37.8414C27.1555 37.0106 31.2654 34.4624 34.1164 30.8682H27.1241C25.9167 33.2135 24.3606 35.5398 22.457 37.8414Z" fill="white"></path>
  <path d="M20.6836 30.8682V37.1956C22.465 35.1025 23.937 32.9915 25.1085 30.8682H20.6836Z" fill="white"></path>
  <path d="M28.4303 19.8882H20.6836V29.0879H26.02C27.4539 26.0374 28.261 22.9656 28.4303 19.8882Z" fill="white"></path>
  <path d="M20.6836 0.62439V7.0673H25.3832C23.7374 4.03811 21.8237 1.81387 20.6836 0.62439Z" fill="white"></path>
  <path d="M28.4258 17.304C28.2341 14.1369 27.3754 11.2894 26.2666 8.84875H20.6836V18.1078H28.4505C28.4438 17.8399 28.4415 17.572 28.4258 17.304Z" fill="white"></path>
  <path d="M4.12109 30.8682C7.22988 34.7886 11.8364 37.468 17.0697 38.0275C15.0955 35.6653 13.4901 33.2774 12.2512 30.8682H4.12109Z" fill="white"></path>
  <path d="M13.3537 29.0879H18.9009V19.8882H10.9434C11.1138 22.9656 11.921 26.0374 13.3537 29.0879Z" fill="white"></path>
  <path d="M10.9485 17.304C10.9328 17.572 10.9306 17.8399 10.9238 18.1079H18.9015V8.84766H13.1066C11.999 11.2883 11.1402 14.1358 10.9485 17.304Z" fill="white"></path>
  <path d="M18.9026 7.06726V0.40686C17.7983 1.52907 15.7433 3.843 13.9922 7.06726H18.9026Z" fill="white"></path>
  <path d="M9.16156 19.8882H0C0.154711 23.2526 1.18387 26.3916 2.86215 29.0879H11.4015C10.0708 26.0452 9.31851 22.9745 9.16156 19.8882Z" fill="white"></path>
  <path d="M16.8217 0C11.7163 0.614358 7.22631 3.2422 4.16797 7.06736H11.9562C13.5392 3.89691 15.4607 1.48769 16.8217 0Z" fill="white"></path>
  <path d="M18.9013 37.4355V30.8682H14.2656C15.482 33.0722 17.0291 35.2628 18.9013 37.4355Z" fill="white"></path>
  <path d="M9.17277 17.1751C9.36335 14.0742 10.1268 11.2804 11.1414 8.84766H2.90138C1.19957 11.5562 0.155832 14.7177 0 18.1079H9.1425C9.15034 17.7973 9.15371 17.4868 9.17277 17.1751Z" fill="white"></path>
</svg>
