<?xml version="1.0" encoding="UTF-8"?>
<svg xmlns="http://www.w3.org/2000/svg" width="25" height="42" viewBox="0 0 25 42" fill="none">
  <path d="M14.6071 31.5553C14.8261 32.42 14.0747 33.0845 14.626 33.9907C13.8217 33.9756 13.3988 33.0052 13.3988 33.0052C13.3535 34.2097 12.451 34.138 12.6625 35.5917C10.8651 34.9876 11.0804 32.6276 11.0804 32.6276C11.0804 32.6276 10.4498 32.9977 10.3252 33.7453C9.53225 33.1072 9.84188 31.559 10.8085 30.6793C9.34723 31.1852 8.28242 32.3331 8.00678 33.481C7.59143 35.2104 8.83748 36.0977 8.1616 38.1027C9.77013 38.0498 10.4536 36.2714 10.4536 36.2714C10.5782 38.3028 12.5568 38.9447 11.8167 41.4406C15.5473 40.5495 15.0791 35.554 15.0791 35.554C15.0791 35.554 16.2005 35.9618 16.4686 37.4532C18.3868 35.8711 17.0992 31.8573 14.0936 30.7208C14.3541 30.9662 14.5316 31.2608 14.6071 31.5553Z" fill="white"></path>
  <path d="M20.7632 18.9098C20.4347 21.2018 19.8116 23.237 19.2188 24.7889C18.5392 26.5711 17.8142 27.9569 17.3535 28.7725L24.203 33.1978C24.7581 33.5566 25.1017 33.3224 24.9733 32.673L22.5227 20.2238C22.4397 19.8047 22.2547 19.5706 21.862 19.3969L20.7632 18.9098Z" fill="white"></path>
  <path d="M13.2803 0.309625C13.1482 0.162364 12.9707 0 12.7932 0C12.612 0 12.4307 0.158588 12.2986 0.302073C11.5245 1.1441 9.96883 2.97542 8.55664 5.47885L16.9769 5.52038C15.5836 3.00563 14.0468 1.15921 13.2803 0.309625Z" fill="white"></path>
  <path d="M5.74099 13.7178C4.81211 21.7228 9.41495 28.8895 9.41495 28.8895L15.8718 28.9234C15.8718 28.9234 20.5463 21.8021 19.7005 13.7858C19.4249 11.1653 18.5904 8.76384 17.5936 6.7173L7.91969 6.66821C6.90019 8.70721 6.04306 11.1011 5.74099 13.7178ZM15.3922 12.2641C16.4948 13.7405 16.1927 15.8324 14.7126 16.9387C13.2362 18.0413 11.1443 17.7392 10.038 16.259C8.93541 14.7826 9.23748 12.6908 10.7176 11.5845C12.1978 10.4781 14.2897 10.7877 15.3922 12.2641Z" fill="white"></path>
  <path d="M6.11227 24.7209C5.53456 23.1652 4.93041 21.1224 4.62834 18.8267L3.522 19.3024C3.1293 19.4723 2.94051 19.7027 2.85366 20.1218L0.278489 32.5446C0.146332 33.1902 0.486165 33.4281 1.045 33.077L7.93604 28.7233C7.48293 27.904 6.77683 26.5106 6.11227 24.7209Z" fill="white"></path>
</svg>

